<?xml version="1.0" ?><svg enable-background="new 0 0 32 32" version="1.1" viewBox="0 0 32 32" xml:space="preserve" xmlns="http://www.w3.org/2000/svg" xmlns:xlink="http://www.w3.org/1999/xlink"><g id="Full"><linearGradient gradientUnits="userSpaceOnUse" id="SVGID_2_" x1="16" x2="16" y1="32" y2="0"><stop offset="0" style="stop-color:#FF2D76"/><stop offset="1" style="stop-color:#FB0000"/></linearGradient><path d="M31.37,13c0.2,1.07,0.31,2.19,0.31,3.36C31.68,25.5,25.56,32,16.32,32c-8.84,0-16-7.16-16-16   s7.16-16,16-16c4.32,0,7.93,1.59,10.7,4.17L22.51,8.68V8.67c-1.68-1.6-3.81-2.42-6.189-2.42c-5.28,0-9.57,4.46-9.57,9.74   c0,5.279,4.29,9.75,9.57,9.75c4.79,0,8.05-2.74,8.721-6.5H16.32V13L31.37,13L31.37,13z" fill="url(#SVGID_2_)"/></g></svg>